<svg width="182" height="27" viewBox="0 0 182 27" fill="none" xmlns="http://www.w3.org/2000/svg">
<path d="M10.3044 2L20.0718 7.75V19.25L10.3044 25L0.537109 19.25V7.75L10.3044 2Z" stroke="#808080"/>
<path d="M33.288 16.872H44.52L44.232 15.912H33.576L33.288 16.872ZM38.888 4.36L43.752 16.328L43.848 16.584L47.208 25H48.392L38.888 1.928L29.384 25H30.536L33.96 16.52L34.056 16.264L38.888 4.36ZM51.4693 2.6V25H52.4933V2.6H51.4693Z" fill="black"/>
<path d="M67.534 2.6V25H68.59V2.6H67.534ZM68.142 3.592H72.142C73.934 3.592 75.3847 4.072 76.494 5.032C77.6247 5.992 78.19 7.368 78.19 9.16C78.19 10.952 77.6247 12.3387 76.494 13.32C75.3847 14.28 73.934 14.76 72.142 14.76H68.142V15.72H72.142C73.5287 15.72 74.7553 15.464 75.822 14.952C76.8887 14.4187 77.7207 13.6613 78.318 12.68C78.9367 11.6987 79.246 10.5253 79.246 9.16C79.246 7.77333 78.9367 6.6 78.318 5.64C77.7207 4.65867 76.8887 3.912 75.822 3.4C74.7553 2.86667 73.5287 2.6 72.142 2.6H68.142V3.592ZM84.046 13.288H98.958V12.296H84.046V13.288ZM98.254 2.6V25H99.31V2.6H98.254ZM83.534 2.6V25H84.59V2.6H83.534ZM104.686 13.8C104.686 11.7733 105.102 9.98133 105.934 8.424C106.787 6.86667 107.96 5.64 109.454 4.744C110.947 3.82667 112.643 3.368 114.542 3.368C116.483 3.368 118.19 3.82667 119.662 4.744C121.155 5.64 122.318 6.86667 123.15 8.424C123.982 9.98133 124.398 11.7733 124.398 13.8C124.398 15.8053 123.982 17.5973 123.15 19.176C122.318 20.7333 121.155 21.9707 119.662 22.888C118.19 23.784 116.483 24.232 114.542 24.232C112.643 24.232 110.947 23.784 109.454 22.888C107.96 21.9707 106.787 20.7333 105.934 19.176C105.102 17.5973 104.686 15.8053 104.686 13.8ZM103.598 13.8C103.598 15.4427 103.864 16.968 104.398 18.376C104.952 19.784 105.72 21 106.702 22.024C107.683 23.048 108.835 23.848 110.158 24.424C111.502 25 112.963 25.288 114.542 25.288C116.142 25.288 117.603 25 118.926 24.424C120.248 23.848 121.4 23.048 122.382 22.024C123.384 21 124.152 19.784 124.686 18.376C125.24 16.968 125.518 15.4427 125.518 13.8C125.518 12.136 125.24 10.6107 124.686 9.224C124.152 7.816 123.384 6.6 122.382 5.576C121.4 4.552 120.248 3.752 118.926 3.176C117.603 2.6 116.142 2.312 114.542 2.312C112.963 2.312 111.502 2.6 110.158 3.176C108.835 3.752 107.683 4.552 106.702 5.576C105.72 6.6 104.952 7.816 104.398 9.224C103.864 10.6107 103.598 12.136 103.598 13.8ZM126.607 3.592H132.591V25H133.647V3.592H139.631V2.6H126.607V3.592ZM141.186 13.8C141.186 11.7733 141.602 9.98133 142.434 8.424C143.287 6.86667 144.46 5.64 145.954 4.744C147.447 3.82667 149.143 3.368 151.042 3.368C152.983 3.368 154.69 3.82667 156.162 4.744C157.655 5.64 158.818 6.86667 159.65 8.424C160.482 9.98133 160.898 11.7733 160.898 13.8C160.898 15.8053 160.482 17.5973 159.65 19.176C158.818 20.7333 157.655 21.9707 156.162 22.888C154.69 23.784 152.983 24.232 151.042 24.232C149.143 24.232 147.447 23.784 145.954 22.888C144.46 21.9707 143.287 20.7333 142.434 19.176C141.602 17.5973 141.186 15.8053 141.186 13.8ZM140.098 13.8C140.098 15.4427 140.364 16.968 140.898 18.376C141.452 19.784 142.22 21 143.202 22.024C144.183 23.048 145.335 23.848 146.658 24.424C148.002 25 149.463 25.288 151.042 25.288C152.642 25.288 154.103 25 155.426 24.424C156.748 23.848 157.9 23.048 158.882 22.024C159.884 21 160.652 19.784 161.186 18.376C161.74 16.968 162.018 15.4427 162.018 13.8C162.018 12.136 161.74 10.6107 161.186 9.224C160.652 7.816 159.884 6.6 158.882 5.576C157.9 4.552 156.748 3.752 155.426 3.176C154.103 2.6 152.642 2.312 151.042 2.312C149.463 2.312 148.002 2.6 146.658 3.176C145.335 3.752 144.183 4.552 143.202 5.576C142.22 6.6 141.452 7.816 140.898 9.224C140.364 10.6107 140.098 12.136 140.098 13.8ZM165.963 18.76L165.099 19.272C165.355 20.3387 165.771 21.3307 166.347 22.248C166.923 23.1653 167.681 23.9013 168.619 24.456C169.558 25.0107 170.699 25.288 172.043 25.288C172.982 25.288 173.835 25.1387 174.603 24.84C175.371 24.5413 176.022 24.136 176.555 23.624C177.11 23.0907 177.537 22.4613 177.835 21.736C178.134 21.0107 178.283 20.2213 178.283 19.368C178.283 18.408 178.113 17.576 177.771 16.872C177.451 16.168 177.025 15.5707 176.491 15.08C175.958 14.5893 175.361 14.1733 174.699 13.832C174.059 13.4907 173.419 13.192 172.779 12.936C171.649 12.5307 170.657 12.0827 169.803 11.592C168.971 11.1013 168.31 10.5253 167.819 9.864C167.35 9.18133 167.115 8.36 167.115 7.4C167.115 6.16267 167.521 5.18133 168.331 4.456C169.163 3.73067 170.273 3.368 171.659 3.368C172.705 3.368 173.579 3.56 174.283 3.944C174.987 4.328 175.553 4.808 175.979 5.384C176.427 5.96 176.758 6.54667 176.971 7.144L177.931 6.632C177.675 5.97067 177.281 5.30933 176.747 4.648C176.214 3.98667 175.531 3.432 174.699 2.984C173.867 2.536 172.865 2.312 171.691 2.312C170.603 2.312 169.633 2.52533 168.779 2.952C167.926 3.37867 167.254 3.98667 166.763 4.776C166.294 5.544 166.059 6.45067 166.059 7.496C166.059 8.41333 166.23 9.20267 166.571 9.864C166.913 10.5253 167.371 11.1013 167.947 11.592C168.545 12.0613 169.195 12.4773 169.899 12.84C170.603 13.1813 171.307 13.4907 172.011 13.768C172.865 14.088 173.686 14.472 174.475 14.92C175.265 15.368 175.915 15.9547 176.427 16.68C176.939 17.4053 177.195 18.3333 177.195 19.464C177.195 20.8507 176.747 22.0027 175.851 22.92C174.955 23.816 173.697 24.264 172.075 24.264C170.838 24.264 169.814 24.008 169.003 23.496C168.193 22.984 167.542 22.312 167.051 21.48C166.582 20.6267 166.219 19.72 165.963 18.76Z" fill="#828282"/>
</svg>
